<svg xmlns="http://www.w3.org/2000/svg" viewBox="0 0 1200 900" role="img" aria-labelledby="title desc">
  <title>CampChat</title>
  <desc>Messaging and translation themed artwork</desc>
  <defs>
    <linearGradient id="g" x1="0" y1="0" x2="1" y2="1">
      <stop offset="0%" stop-color="#0f172a" />
      <stop offset="45%" stop-color="#0ea5e9" />
      <stop offset="100%" stop-color="#8b5cf6" />
    </linearGradient>
  </defs>
  <rect width="1200" height="900" fill="url(#g)" />
  <circle cx="270" cy="220" r="150" fill="#22c55e" opacity="0.18" />
  <circle cx="930" cy="200" r="190" fill="#38bdf8" opacity="0.16" />
  <rect x="180" y="190" width="840" height="520" rx="56" fill="#ffffff" fill-opacity="0.12" stroke="#ffffff" stroke-opacity="0.18" />
  <rect x="255" y="285" width="300" height="180" rx="42" fill="#ffffff" opacity="0.92" />
  <rect x="615" y="345" width="320" height="180" rx="42" fill="#0f172a" opacity="0.55" />
  <path d="M320 465l40 35 52-36" fill="none" stroke="#0ea5e9" stroke-width="18" stroke-linecap="round" stroke-linejoin="round" />
  <path d="M675 425c0-26 21-47 47-47h46c26 0 47 21 47 47v16c0 26-21 47-47 47h-18l-34 30v-30h-16c-26 0-47-21-47-47v-16z" fill="#ffffff" fill-opacity="0.85" />
  <path d="M735 435h54M735 463h34" stroke="#8b5cf6" stroke-width="14" stroke-linecap="round" />
  <text x="600" y="630" text-anchor="middle" font-family="Arial, Helvetica, sans-serif" font-size="76" font-weight="700" fill="#ffffff">CampChat</text>
  <text x="600" y="700" text-anchor="middle" font-family="Arial, Helvetica, sans-serif" font-size="36" font-weight="600" fill="#dbeafe">Messaging &amp; Translation</text>
</svg>