<svg xmlns="http://www.w3.org/2000/svg" viewBox="0 0 1200 900" role="img" aria-labelledby="title desc">
  <title>DGL</title>
  <desc>Driver garage linker themed artwork</desc>
  <defs>
    <linearGradient id="g" x1="0" y1="0" x2="1" y2="1">
      <stop offset="0%" stop-color="#111827" />
      <stop offset="45%" stop-color="#f97316" />
      <stop offset="100%" stop-color="#ec4899" />
    </linearGradient>
  </defs>
  <rect width="1200" height="900" fill="url(#g)" />
  <circle cx="910" cy="240" r="190" fill="#fb7185" opacity="0.16" />
  <circle cx="260" cy="180" r="120" fill="#fbbf24" opacity="0.16" />
  <rect x="170" y="180" width="860" height="540" rx="60" fill="#ffffff" fill-opacity="0.12" stroke="#ffffff" stroke-opacity="0.16" />
  <rect x="260" y="290" width="270" height="360" rx="42" fill="#0f172a" opacity="0.78" />
  <rect x="290" y="330" width="210" height="220" rx="30" fill="#fb7185" opacity="0.75" />
  <circle cx="395" cy="575" r="28" fill="#f8fafc" />
  <path d="M300 440h180M335 400l45 45 70-70" fill="none" stroke="#ffffff" stroke-width="18" stroke-linecap="round" stroke-linejoin="round" />
  <path d="M650 410c0-48 39-87 87-87h140c48 0 87 39 87 87v38c0 48-39 87-87 87h-40l-60 52v-52h-40c-48 0-87-39-87-87v-38z" fill="#ffffff" fill-opacity="0.88" />
  <path d="M720 430h190M720 470h145" stroke="#f97316" stroke-width="16" stroke-linecap="round" />
  <circle cx="780" cy="585" r="52" fill="#ffffff" fill-opacity="0.9" />
  <circle cx="900" cy="585" r="52" fill="#ffffff" fill-opacity="0.9" />
  <path d="M725 585h225" stroke="#1f2937" stroke-width="18" stroke-linecap="round" />
  <text x="600" y="645" text-anchor="middle" font-family="Arial, Helvetica, sans-serif" font-size="78" font-weight="700" fill="#ffffff">DGL</text>
  <text x="600" y="712" text-anchor="middle" font-family="Arial, Helvetica, sans-serif" font-size="34" font-weight="600" fill="#fee2e2">Garage Linker App</text>
</svg>