<svg xmlns="http://www.w3.org/2000/svg" viewBox="0 0 1200 900" role="img" aria-labelledby="title desc">
  <title>SORP</title>
  <desc>Staff operation and reporting themed artwork</desc>
  <defs>
    <linearGradient id="g" x1="0" y1="0" x2="1" y2="1">
      <stop offset="0%" stop-color="#0f172a" />
      <stop offset="45%" stop-color="#7c3aed" />
      <stop offset="100%" stop-color="#d946ef" />
    </linearGradient>
  </defs>
  <rect width="1200" height="900" fill="url(#g)" />
  <circle cx="260" cy="220" r="160" fill="#67e8f9" opacity="0.12" />
  <circle cx="940" cy="220" r="180" fill="#f0abfc" opacity="0.15" />
  <rect x="160" y="170" width="880" height="560" rx="56" fill="#ffffff" fill-opacity="0.11" stroke="#ffffff" stroke-opacity="0.16" />
  <rect x="250" y="260" width="700" height="120" rx="32" fill="#ffffff" fill-opacity="0.88" />
  <rect x="250" y="415" width="210" height="220" rx="30" fill="#0f172a" opacity="0.72" />
  <rect x="490" y="415" width="210" height="220" rx="30" fill="#111827" opacity="0.62" />
  <rect x="730" y="415" width="220" height="220" rx="30" fill="#0f172a" opacity="0.72" />
  <path d="M285 330h150M285 365h90" stroke="#7c3aed" stroke-width="16" stroke-linecap="round" />
  <path d="M525 330h150M525 365h110" stroke="#7c3aed" stroke-width="16" stroke-linecap="round" />
  <path d="M765 330h150M765 365h100" stroke="#7c3aed" stroke-width="16" stroke-linecap="round" />
  <circle cx="355" cy="505" r="34" fill="#34d399" />
  <circle cx="595" cy="505" r="34" fill="#f59e0b" />
  <circle cx="845" cy="505" r="34" fill="#22d3ee" />
  <path d="M330 585h50M570 585h50M820 585h50" stroke="#ffffff" stroke-width="14" stroke-linecap="round" />
  <text x="600" y="650" text-anchor="middle" font-family="Arial, Helvetica, sans-serif" font-size="76" font-weight="700" fill="#ffffff">SORP</text>
  <text x="600" y="718" text-anchor="middle" font-family="Arial, Helvetica, sans-serif" font-size="34" font-weight="600" fill="#ede9fe">Operations &amp; Reporting</text>
</svg>